<svg xmlns="http://www.w3.org/2000/svg" viewBox="0 0 24 24" width="24" height="24" role="img" aria-label="Claude">
  <g stroke="#D97757" stroke-width="2" stroke-linecap="round">
    <path d="M12 12V3" transform="rotate(0 12 12)"/>
    <path d="M12 12V5.5" transform="rotate(30 12 12)"/>
    <path d="M12 12V3" transform="rotate(60 12 12)"/>
    <path d="M12 12V5.5" transform="rotate(90 12 12)"/>
    <path d="M12 12V3" transform="rotate(120 12 12)"/>
    <path d="M12 12V5.5" transform="rotate(150 12 12)"/>
    <path d="M12 12V3" transform="rotate(180 12 12)"/>
    <path d="M12 12V5.5" transform="rotate(210 12 12)"/>
    <path d="M12 12V3" transform="rotate(240 12 12)"/>
    <path d="M12 12V5.5" transform="rotate(270 12 12)"/>
    <path d="M12 12V3" transform="rotate(300 12 12)"/>
    <path d="M12 12V5.5" transform="rotate(330 12 12)"/>
  </g>
</svg>
